<?xml version="1.0"?>
<svg xmlns="http://www.w3.org/2000/svg" height="512px" viewBox="0 0 512 512" width="512px" class=""><g><path d="m64 0h32v64h-32zm0 0" fill="#57565c" data-original="#57565C"/><path d="m416 0h32v64h-32zm0 0" fill="#57565c" data-original="#57565C"/><path d="m64 16h32v48h-32zm0 0" fill="#2d2d30" data-original="#2D2D30"/><path d="m416 16h32v48h-32zm0 0" fill="#2d2d30" data-original="#2D2D30"/><path d="m448 512h-384c-35.34375 0-64-28.65625-64-64v-320h512v320c0 35.34375-28.65625 64-64 64zm0 0" fill="#00ddc2" data-original="#00DDC2" class=""/><path d="m0 128h512v64h-512zm0 0" fill="#0ac1a7" data-original="#0AC1A7" class=""/><path d="m0 48h512v112h-512zm0 0" fill="#ffcb5a" data-original="#FFCB5A" class=""/><g fill="#fff"><path d="m64 80h32v32h-32zm0 0" data-original="#000000" class="" style="fill:#05D8DA" data-old_color="#06D8DA"/><path d="m416 80h32v32h-32zm0 0" data-original="#000000" class="" style="fill:#05D8DA" data-old_color="#06D8DA"/><path d="m240 256h32v80h-32zm0 0" data-original="#000000" class="" style="fill:#05D8DA" data-old_color="#06D8DA"/><path d="m240 192h32v32h-32zm0 0" data-original="#000000" class="" style="fill:#05D8DA" data-old_color="#06D8DA"/></g><path d="m240 288h32v48h-32zm0 0" fill="#efefef" data-original="#EFEFEF" class="" style="fill:#10DBCC" data-old_color="#0FDBCC"/><path d="m352 448h-192v-80c0-26.464844 21.535156-48 48-48h96c26.464844 0 48 21.535156 48 48zm0 0" fill="#ff668b" data-original="#FF668B" class="active-path" style="fill:#FFF700" data-old_color="#FF668B"/><path d="m160 384h192v48h-192zm0 0" fill="#f7487a" data-original="#F7487A" class="" style="fill:#FFE800" data-old_color="#F7487A"/><path d="m128 416h256v32h-256zm0 0" fill="#fff" data-original="#FFF" class="" style="fill:#FFE800" data-old_color="#FFFF00"/></g> </svg>
