<?xml version="1.0" encoding="utf-8"?>
<!-- Generator: Adobe Illustrator 23.0.6, SVG Export Plug-In . SVG Version: 6.00 Build 0)  -->
<svg version="1.1" id="Layer_1" xmlns="http://www.w3.org/2000/svg" xmlns:xlink="http://www.w3.org/1999/xlink" x="0px" y="0px"
	 viewBox="0 0 96 120" style="enable-background:new 0 0 96 120;" xml:space="preserve">
<g>
	<path d="M2.5,54.1V30.3c0-3.1,1.9-5.7,4.9-7.6C10,21.1,13.6,20,17.6,20l47.7-9.6c0.2,0,0.3-0.1,0.5-0.1l0,0c4,0,7.7,1,10.3,2.7
		c3,1.9,4.9,4.5,4.9,7.6v33.5c0,3-1.9,5.7-4.9,7.6c-2.7,1.6-6.3,2.7-10.3,2.7H36.9L15.1,78.2c-1.1,0.7-2.5,0.4-3.1-0.7
		c-0.4-0.6-0.5-1.4-0.2-2.1l4.5-11.1c-3.4-0.2-6.5-1.2-8.8-2.6C4.4,59.9,2.5,57.2,2.5,54.1L2.5,54.1z M25.9,36.6
		c2.3,0,4.3,1.9,4.3,4.3s-1.9,4.3-4.3,4.3s-4.3-1.9-4.3-4.3S23.6,36.6,25.9,36.6L25.9,36.6z M56.7,36.6c2.4,0,4.3,1.9,4.3,4.3
		s-1.9,4.3-4.3,4.3c-2.4,0-4.3-1.9-4.3-4.3S54.3,36.6,56.7,36.6L56.7,36.6z M41.3,36.6c2.4,0,4.3,1.9,4.3,4.3s-1.9,4.3-4.3,4.3
		s-4.3-2-4.3-4.4S38.9,36.6,41.3,36.6L41.3,36.6z M36.7,71.9c-0.9-0.9-1-2.3-0.1-3.2c0.9-0.9,2.3-1,3.2-0.2c0.7,0.6,1.5,1.1,2.6,1.4
		c1.1,0.4,2.4,0.6,3.8,0.6H68c0.5,0,1,0.2,1.4,0.5l10.3,6.6l-1.6-3.9c-0.5-1.2,0.1-2.5,1.3-3c0.3-0.1,0.6-0.2,0.9-0.2l0,0h1.4
		c2.2,0,4.2-0.5,5.6-1.4c1-0.7,1.7-1.4,1.7-2.2V49.3c0-0.4-0.2-0.9-0.6-1.3c-0.5-0.6-1.3-1.1-2.3-1.5c-1.2-0.5-1.7-1.8-1.3-3
		c0.5-1.2,1.8-1.7,3-1.3c1.6,0.7,3.1,1.6,4.1,2.7c1.1,1.2,1.7,2.7,1.7,4.3V67c0,2.5-1.5,4.6-3.9,6.1c-1.6,1-3.7,1.7-6,2l3,7.5
		c0.3,0.7,0.2,1.4-0.2,2.1c-0.7,1-2.1,1.4-3.1,0.7L67.3,75.1H46.2c-1.8,0-3.6-0.3-5.2-0.8C39.3,73.8,37.8,73,36.7,71.9L36.7,71.9z
		 M7.1,30.3v23.9c0,1.3,1,2.6,2.7,3.7c2,1.2,4.8,2,7.9,2h1.8l0,0c0.3,0,0.6,0,0.9,0.1c1.2,0.5,1.8,1.8,1.3,3l-3.1,7.6l16.2-10.3
		c0.4-0.3,0.9-0.5,1.4-0.5h29.5c3.1,0,6-0.7,7.9-2c1.7-1,2.7-2.3,2.7-3.7V20.6c0-1.4-1-2.7-2.7-3.7c-2-1.2-4.7-2-7.8-2l-47.5,9.5
		c-0.2,0.1-0.4,0.1-0.7,0.1c-3.1,0-6,0.8-7.9,2C8.1,27.6,7.1,28.9,7.1,30.3L7.1,30.3z"/>
</g>
</svg>
