<?xml version="1.0" encoding="utf-8"?>
<!-- Generator: Adobe Illustrator 23.0.6, SVG Export Plug-In . SVG Version: 6.00 Build 0)  -->
<svg version="1.1" xmlns="http://www.w3.org/2000/svg" xmlns:xlink="http://www.w3.org/1999/xlink" x="0px" y="0px"
	 viewBox="0 0 100 125" style="enable-background:new 0 0 100 125;" xml:space="preserve">
<g id="Layer_2">
</g>
<g id="Layer_1">
	<g>
		<path d="M5273.1,2400.1v-2c0-2.8-5-4-9.7-4s-9.7,1.3-9.7,4v2c0,1.8,0.7,3.6,2,4.9l5,4.9c0.3,0.3,0.4,0.6,0.4,1v6.4
			c0,0.4,0.2,0.7,0.6,0.8l2.9,0.9c0.5,0.1,1-0.2,1-0.8v-7.2c0-0.4,0.2-0.7,0.4-1l5.1-5C5272.4,2403.7,5273.1,2401.9,5273.1,2400.1z
			 M5263.4,2400c-4.8,0-7.4-1.3-7.5-1.8l0,0c0.1-0.5,2.7-1.8,7.5-1.8s7.3,1.3,7.5,1.8C5270.7,2398.7,5268.2,2400,5263.4,2400z"/>
		<path d="M5268.4,2410.3c-0.6,0-1,0.4-1,1s0.4,1,1,1h4.3c0.6,0,1-0.4,1-1s-0.4-1-1-1H5268.4z"/>
		<path d="M5272.7,2413.7h-4.3c-0.6,0-1,0.4-1,1s0.4,1,1,1h4.3c0.6,0,1-0.4,1-1C5273.7,2414.1,5273.3,2413.7,5272.7,2413.7z"/>
		<path d="M5272.7,2417h-4.3c-0.6,0-1,0.4-1,1s0.4,1,1,1h4.3c0.6,0,1-0.4,1-1C5273.7,2417.5,5273.3,2417,5272.7,2417z"/>
	</g>
	<g>
		<g>
			<path d="M39.7,30.4h21.5c1.5,0,2.8-1.2,2.8-2.8s-1.2-2.8-2.8-2.8H39.7c-1.5,0-2.8,1.2-2.8,2.8S38.2,30.4,39.7,30.4z"/>
		</g>
		<g>
			<path d="M39.7,43.2h21.5c1.5,0,2.8-1.2,2.8-2.8c0-1.5-1.2-2.8-2.8-2.8H39.7c-1.5,0-2.8,1.2-2.8,2.8S38.2,43.2,39.7,43.2z"/>
		</g>
		<g>
			<path d="M48.8,50.5h-9.1c-1.5,0-2.8,1.2-2.8,2.8c0,1.5,1.2,2.8,2.8,2.8h9.1c1.5,0,2.8-1.2,2.8-2.8C51.6,51.7,50.3,50.5,48.8,50.5
				z"/>
		</g>
		<g>
			<path d="M78.4,46.6v-34c0-1.5-1.2-2.8-2.8-2.8H5.3c-1.5,0-2.8,1.2-2.8,2.8v55.6c0,1.5,1.2,2.8,2.8,2.8H54
				c1.4,10.7,10.5,19.1,21.6,19.1c12.1,0,21.9-9.8,21.9-21.9C97.5,57.1,89.1,48,78.4,46.6z M8.1,15.4h64.8v31.2
				c-9.8,1.3-17.6,9-18.8,18.8h-46C8.1,65.4,8.1,15.4,8.1,15.4z M75.6,84.6c-9,0-16.3-7.3-16.3-16.3S66.6,52,75.6,52
				s16.3,7.3,16.3,16.3S84.6,84.6,75.6,84.6z"/>
		</g>
		<g>
			<path d="M82.8,65.5h-4.4v-6.1c0-1.5-1.2-2.8-2.8-2.8s-2.8,1.2-2.8,2.8v8.9c0,1.5,1.2,2.8,2.8,2.8h7.2c1.5,0,2.8-1.2,2.8-2.8
				S84.4,65.5,82.8,65.5z"/>
		</g>
		<g>
			<path d="M28.7,48.5c-0.3-0.9-1.2-1.5-2.2-1.4l-3.6,0.4c-0.7-2.4-1.1-4.4-1.1-7.1c0-2.9,0.4-4.9,1.1-7.2l3.6,0.4
				c1,0.1,1.9-0.5,2.2-1.4l2.1-6.6c0.4-1.2-0.4-2.4-1.5-2.6l-4.6-0.9c-1.1-0.2-2.2,0.2-2.9,1c-0.8,0.9-1.7,2-2.2,2.9
				c-2.3,3.9-3.6,9-3.6,14.5c0,5.4,1.3,10.6,3.6,14.5c0.5,0.9,1.4,2,2.2,2.8c0.7,0.8,1.9,1.2,2.9,1l4.6-1c1.2-0.3,1.9-1.5,1.5-2.6
				L28.7,48.5z"/>
		</g>
	</g>
</g>
</svg>
