<?xml version="1.0" encoding="utf-8"?>
<!-- Generator: Adobe Illustrator 23.0.0, SVG Export Plug-In . SVG Version: 6.00 Build 0)  -->
<svg version="1.1" id="Layer_1" xmlns="http://www.w3.org/2000/svg" xmlns:xlink="http://www.w3.org/1999/xlink" x="0px" y="0px"
	 viewBox="0 0 288 230.67" style="enable-background:new 0 0 288 230.67;" xml:space="preserve">
<style type="text/css">
	.st0{fill:none;stroke:#005C5E;stroke-width:4.6403;stroke-miterlimit:10;}
	.st1{fill:#005C5E;}
</style>
<g>
	<path class="st0" d="M197.9,36.63c0-14.27-11.67-25.94-25.94-25.94h-53.46c-14.27,0-25.94,11.67-25.94,25.94"/>
	<g>
		<path class="st0" d="M62.24,36.63c-2.7,0-5.42,1.09-6.92,2.87l-1.46,2.01L35.4,69.87l0.02-0.03c-1.02,1.55-1.62,3.4-1.62,5.39
			V210.2c0,5.41,4.38,9.79,9.79,9.79h182.23c2.78,0,5.29-1.16,7.07-3.02l19.3-29.67c0,0,1.98-2.73,1.98-5.9V46.42
			c0-5.41-4.38-9.79-9.79-9.79H62.24z"/>
	</g>
	<g>
		<path class="st1" d="M59.26,179.44v-51.93c0-1.01,0.57-1.57,1.57-1.57h6.28c1,0,1.57,0.56,1.57,1.57v51.93
			c0,1-0.57,1.57-1.57,1.57h-6.28C59.83,181.01,59.26,180.45,59.26,179.44z"/>
		<path class="st1" d="M71.5,165.32c0-9.35,7.41-16.57,16.64-16.57c9.23,0,16.64,7.22,16.64,16.57c0,9.36-7.41,16.57-16.64,16.57
			C78.91,181.89,71.5,174.67,71.5,165.32z M95.36,165.32c0-4.46-3.14-7.41-7.22-7.41c-4.08,0-7.22,2.95-7.22,7.41
			c0,4.46,3.14,7.41,7.22,7.41C92.22,172.73,95.36,169.77,95.36,165.32z"/>
		<path class="st1" d="M135.23,161.11v18.33c0,1-0.57,1.57-1.57,1.57h-6.28c-1,0-1.57-0.57-1.57-1.57v-17.52
			c0-3.14-1.82-4.52-4.21-4.52c-2.83,0-4.58,1.57-4.58,5.27v16.76c0,1-0.57,1.57-1.57,1.57h-6.28c-1,0-1.57-0.57-1.57-1.57v-28.25
			c0-1,0.57-1.57,1.57-1.57h6.28c1,0,1.57,0.56,1.57,1.57v1.3c1.48-2.18,4.15-3.75,8.16-3.75
			C131.02,148.74,135.23,153.26,135.23,161.11z"/>
		<path class="st1" d="M169.31,170.84c-1.95,6.53-8.1,11.05-15.45,11.05c-9.54,0-16.64-7.22-16.64-16.57
			c0-9.35,7.09-16.57,16.64-16.57c7.35,0,13.5,4.52,15.45,11.05c0.38,1.07-0.25,1.76-1.32,1.76h-6.91c-0.82,0-1.38-0.38-1.88-1.07
			c-1.13-1.57-3.08-2.45-5.34-2.45c-4.08,0-7.22,2.95-7.22,7.28s3.14,7.28,7.22,7.28c2.26,0,4.21-0.88,5.34-2.39
			c0.5-0.75,1-1.13,1.88-1.13H168C169.06,169.08,169.69,169.77,169.31,170.84z"/>
		<path class="st1" d="M199.26,161.11v18.33c0,1-0.57,1.57-1.57,1.57h-6.28c-1,0-1.57-0.57-1.57-1.57v-17.52
			c0-3.14-1.82-4.52-4.21-4.52c-2.83,0-4.58,1.57-4.58,5.27v16.76c0,1-0.57,1.57-1.57,1.57h-6.28c-1,0-1.57-0.57-1.57-1.57v-50.67
			c0-1,0.57-1.57,1.57-1.57h6.28c1,0,1.57,0.56,1.57,1.57v23.72c1.48-2.18,4.15-3.75,8.16-3.75
			C195.05,148.74,199.26,153.26,199.26,161.11z"/>
		<path class="st1" d="M202.83,144.28v-5.65c0-1,0.57-1.57,1.57-1.57h6.28c1,0,1.57,0.56,1.57,1.57v5.65c0,1.01-0.57,1.57-1.57,1.57
			h-6.28C203.4,145.85,202.83,145.29,202.83,144.28z M202.83,179.44v-28.25c0-1,0.57-1.57,1.57-1.57h6.28c1,0,1.57,0.56,1.57,1.57
			v28.25c0,1-0.57,1.57-1.57,1.57h-6.28C203.4,181.01,202.83,180.45,202.83,179.44z"/>
		<path class="st1" d="M241.51,171.6c0,7.22-6.15,10.3-13.06,10.3c-6.4,0-12.18-2.89-12.93-9.54c-0.13-1.07,0.5-1.63,1.51-1.63h6.15
			c0.94,0,1.26,0.5,1.7,1.32c0.5,1.07,1.7,1.7,3.58,1.7c2.64,0,3.64-0.88,3.64-2.14c0-4.52-16.39-0.38-16.39-12.56
			c0-7.09,6.15-10.3,12.75-10.3c5.84,0,11.55,2.89,12.31,9.54c0.13,1.07-0.5,1.63-1.51,1.63h-6.15c-0.94,0-1.26-0.5-1.7-1.38
			c-0.44-1-1.51-1.63-2.95-1.63c-2.32,0-3.33,0.88-3.33,2.13C225.12,163.68,241.51,159.35,241.51,171.6z"/>
	</g>
</g>
</svg>
